<?xml version="1.0" encoding="UTF-8"?>
<svg id="Capa_1" data-name="Capa 1" xmlns="http://www.w3.org/2000/svg" viewBox="0 0 64 64">
  <defs>
    <style>
      .cls-1 {
        fill: #1d1d1b;
      }
    </style>
  </defs>
  <path class="cls-1" d="M15.22,53.91c2.02-.31,3.41-.92,4.16-1.83.75-.91,1.13-2.47,1.13-4.7l.08-32.63c0-1.66-.18-2.77-.54-3.34-.36-.57-1.14-.85-2.33-.85-.47,0-1.35.05-2.64.16l-.16-.31.54-3.42c2.07.1,3.79.17,5.17.19,1.37.03,2.55.04,3.53.04.83,0,1.72-.04,2.68-.12s1.86-.16,2.72-.23,1.83-.19,2.91-.35l-.31,3.5c-1.71.21-2.9.54-3.57,1.01-.67.47-1.06,1.18-1.17,2.14-.1.96-.23,2.32-.39,4.08-.21,3.21-.39,6.69-.54,10.45-.16,3.76-.26,7.36-.31,10.8-.05,3.45-.08,6.36-.08,8.74,0,1.76.14,3.07.43,3.92.28.85.91,1.41,1.86,1.67.96.26,2.4.39,4.31.39,2.28,0,4.12-.13,5.52-.39,1.4-.26,2.53-.78,3.38-1.55.85-.78,1.54-1.89,2.06-3.34.52-1.45.98-3.37,1.4-5.75l3.42-.39.23.39c-.52,2.8-.95,5.31-1.28,7.54-.34,2.23-.66,4.64-.97,7.23l-.39.47c-2.9-.16-5.47-.27-7.69-.35-2.23-.08-4.52-.16-6.88-.23-2.36-.08-4.47-.12-6.33-.12s-3.67.06-5.24.19c-1.58.13-3.3.32-5.17.58l.47-3.57Z"/>
</svg>